<svg id="svg" xmlns="http://www.w3.org/2000/svg" xmlns:xlink="http://www.w3.org/1999/xlink"  height="32" viewBox="0, 0, 400,125.764192139738" version="1.1"><g id="svgg"><path id="path0" d="M79.416 2.708 C 78.973 3.648,78.183 5.317,77.660 6.417 C 77.136 7.517,76.539 8.792,76.331 9.250 C 76.124 9.708,75.402 11.237,74.727 12.647 C 74.052 14.057,73.500 15.232,73.500 15.257 C 73.500 15.282,73.004 16.341,72.397 17.610 C 71.290 19.925,70.429 21.746,69.416 23.917 C 68.475 25.931,67.150 28.745,65.415 32.417 C 64.981 33.333,64.419 34.533,64.166 35.083 C 63.912 35.633,63.330 36.871,62.872 37.833 C 60.884 42.012,60.279 43.294,57.998 48.167 C 57.376 49.496,56.419 51.521,55.871 52.667 C 55.323 53.813,54.714 55.106,54.517 55.540 C 54.321 55.975,53.634 57.432,52.992 58.778 C 51.622 61.651,51.571 61.524,54.073 61.464 L 56.035 61.417 56.355 60.833 C 56.673 60.256,59.667 54.006,59.667 53.922 C 59.667 53.897,60.234 52.686,60.928 51.231 C 61.622 49.775,62.403 48.133,62.664 47.583 C 64.807 43.060,65.384 41.905,65.554 41.796 C 65.808 41.635,91.190 41.633,91.437 41.794 C 91.610 41.907,92.029 42.744,93.000 44.917 C 93.205 45.375,93.701 46.452,94.103 47.311 C 94.505 48.169,94.833 48.896,94.833 48.926 C 94.833 48.955,95.179 49.716,95.602 50.615 C 96.026 51.514,96.692 52.962,97.084 53.833 C 97.476 54.704,98.059 55.979,98.381 56.667 C 99.680 59.447,100.167 60.530,100.167 60.647 C 100.167 61.421,100.645 61.500,105.330 61.500 C 110.339 61.500,110.182 61.544,109.613 60.296 C 109.392 59.812,109.042 59.042,108.835 58.583 C 108.627 58.125,108.092 56.975,107.646 56.027 C 107.199 55.080,106.833 54.278,106.833 54.245 C 106.833 54.212,106.346 53.161,105.750 51.910 C 105.154 50.659,104.667 49.611,104.667 49.580 C 104.667 49.517,103.771 47.562,102.835 45.583 C 102.489 44.850,102.037 43.875,101.831 43.417 C 101.626 42.958,101.196 42.021,100.876 41.333 C 100.556 40.646,99.902 39.221,99.421 38.167 C 98.941 37.112,98.319 35.762,98.040 35.167 C 97.524 34.063,96.844 32.581,96.168 31.083 C 95.961 30.625,95.426 29.475,94.979 28.527 C 94.532 27.580,94.167 26.778,94.167 26.745 C 94.167 26.712,93.679 25.661,93.083 24.410 C 92.487 23.159,92.000 22.110,92.000 22.078 C 92.000 22.046,91.691 21.359,91.314 20.552 C 90.167 18.100,89.561 16.791,89.168 15.917 C 88.961 15.458,88.495 14.446,88.131 13.667 C 87.767 12.887,87.147 11.537,86.753 10.667 C 86.359 9.796,85.739 8.446,85.374 7.667 C 85.009 6.888,84.541 5.875,84.334 5.417 C 84.127 4.958,83.704 4.034,83.395 3.363 C 83.086 2.692,82.833 2.103,82.833 2.055 C 82.833 1.478,82.086 1.000,81.183 1.000 L 80.222 1.000 79.416 2.708 M1.937 2.592 C 1.724 3.144,1.820 61.087,2.033 61.300 C 2.339 61.606,10.890 61.583,11.145 61.276 C 11.278 61.116,11.344 57.127,11.374 47.317 L 11.417 33.583 15.127 33.538 L 18.837 33.494 21.794 37.475 C 23.420 39.664,26.063 43.235,27.667 45.410 C 29.271 47.585,31.821 51.037,33.333 53.081 C 34.846 55.125,36.758 57.722,37.583 58.853 C 38.408 59.983,39.215 61.041,39.375 61.204 C 39.714 61.548,49.875 61.670,50.083 61.333 C 50.140 61.241,45.457 54.866,39.677 47.165 C 33.896 39.465,29.167 33.064,29.167 32.941 C 29.167 32.687,29.856 32.379,31.667 31.822 C 37.391 30.060,41.654 26.030,43.234 20.885 C 43.535 19.907,43.616 15.302,43.345 14.633 C 43.259 14.422,43.035 13.734,42.846 13.102 C 41.738 9.394,38.322 6.023,34.000 4.374 C 31.598 3.457,30.514 3.184,27.417 2.718 C 24.640 2.299,2.091 2.188,1.937 2.592 M118.578 2.539 C 118.534 2.655,118.517 15.950,118.541 32.083 L 118.583 61.417 123.186 61.461 C 126.922 61.497,127.824 61.462,127.978 61.277 C 128.118 61.107,128.157 53.458,128.125 31.732 L 128.083 2.417 123.371 2.372 C 119.690 2.338,118.641 2.374,118.578 2.539 M143.771 2.590 C 143.518 3.249,143.658 61.118,143.913 61.330 C 144.238 61.600,170.265 61.476,171.667 61.197 C 172.171 61.097,173.333 60.891,174.250 60.739 C 175.167 60.586,176.254 60.367,176.667 60.251 C 177.079 60.136,177.754 59.949,178.167 59.836 C 178.579 59.724,179.104 59.558,179.333 59.467 C 179.563 59.376,180.088 59.189,180.500 59.051 C 182.085 58.521,184.849 57.184,186.583 56.110 C 192.124 52.676,196.364 47.347,198.407 41.250 C 199.518 37.936,199.742 36.283,199.744 31.417 C 199.745 26.228,199.393 24.058,197.995 20.651 C 194.585 12.334,188.130 6.640,179.417 4.262 C 178.867 4.112,178.186 3.917,177.905 3.828 C 177.623 3.739,177.197 3.667,176.957 3.667 C 176.718 3.667,176.311 3.585,176.053 3.486 C 175.558 3.296,174.491 3.151,170.417 2.721 C 166.545 2.312,143.920 2.201,143.771 2.590 M213.111 2.444 C 213.050 2.506,213.000 15.779,213.000 31.941 L 213.000 61.327 213.375 61.421 C 213.581 61.472,214.425 61.493,215.250 61.466 L 216.750 61.417 216.835 37.250 C 216.881 23.958,216.938 13.065,216.960 13.042 C 217.534 12.447,218.044 13.092,219.959 16.833 C 223.713 24.170,225.915 28.483,228.076 32.731 C 229.329 35.195,231.090 38.645,231.988 40.397 C 233.604 43.550,236.180 48.600,240.373 56.833 C 242.868 61.732,243.098 61.994,244.328 61.336 C 244.506 61.241,249.681 51.089,256.669 37.128 C 263.287 23.903,268.801 12.979,268.922 12.852 C 269.694 12.037,269.667 11.150,269.667 36.880 C 269.667 55.862,269.711 60.996,269.875 61.221 C 270.064 61.479,270.506 61.502,274.667 61.461 L 279.250 61.417 279.250 31.917 L 279.250 2.417 274.472 2.372 L 269.694 2.328 263.072 15.622 C 245.342 51.221,246.856 48.302,246.222 48.101 C 245.900 47.999,245.634 47.492,238.499 33.417 C 236.733 29.933,234.071 24.683,232.583 21.750 C 231.095 18.817,228.319 13.342,226.415 9.583 C 224.510 5.825,222.878 2.656,222.789 2.542 C 222.613 2.317,213.332 2.224,213.111 2.444 M294.945 2.444 C 294.704 2.685,294.817 61.112,295.060 61.314 C 295.225 61.451,300.683 61.490,315.435 61.459 L 335.583 61.417 335.583 59.833 L 335.583 58.250 320.037 58.207 L 304.491 58.165 304.325 57.728 C 304.121 57.192,304.183 31.261,304.389 31.055 C 304.465 30.979,309.190 30.879,314.889 30.833 L 325.250 30.750 325.250 29.250 L 325.250 27.750 314.967 27.667 C 306.839 27.601,304.638 27.538,304.467 27.367 C 304.216 27.116,304.140 6.138,304.389 5.889 C 304.465 5.813,311.515 5.712,320.056 5.667 L 335.583 5.583 335.583 4.000 L 335.583 2.417 315.320 2.374 C 304.175 2.351,295.007 2.382,294.945 2.444 M347.611 2.444 C 347.550 2.506,347.500 15.779,347.500 31.941 L 347.500 61.327 347.875 61.421 C 348.081 61.472,348.925 61.493,349.750 61.466 L 351.250 61.417 351.335 38.000 C 351.381 25.121,351.438 14.565,351.460 14.542 C 351.859 14.128,352.481 14.722,356.685 19.539 C 362.637 26.358,369.764 34.515,374.500 39.928 C 376.654 42.390,378.942 45.011,379.583 45.753 C 380.555 46.877,384.343 51.215,385.984 53.083 C 386.798 54.010,389.913 57.565,392.227 60.208 L 394.525 62.833 395.429 62.833 L 396.333 62.833 396.333 32.578 L 396.333 2.322 394.542 2.369 L 392.750 2.417 392.708 24.036 L 392.665 45.656 392.317 45.842 C 391.868 46.082,391.925 46.136,387.857 41.593 C 382.442 35.543,381.312 34.284,380.595 33.500 C 380.217 33.087,379.271 32.037,378.493 31.167 C 377.714 30.296,375.764 28.121,374.159 26.333 C 372.554 24.546,369.221 20.833,366.751 18.083 C 364.282 15.333,361.284 11.995,360.089 10.665 C 358.894 9.335,356.724 6.916,355.267 5.290 L 352.617 2.333 350.169 2.333 C 348.823 2.333,347.672 2.383,347.611 2.444 M23.266 5.816 C 29.507 7.147,33.340 11.779,33.330 17.979 C 33.320 24.747,28.454 29.631,20.539 30.818 C 18.510 31.123,11.559 31.060,11.434 30.736 C 11.147 29.987,11.331 5.852,11.625 5.680 C 12.200 5.345,21.571 5.455,23.266 5.816 M168.167 6.509 C 168.579 6.597,169.179 6.711,169.500 6.761 C 178.271 8.147,186.079 15.852,188.065 25.083 C 189.978 33.974,188.052 43.200,182.979 49.436 C 180.299 52.732,175.857 55.580,171.750 56.636 C 168.032 57.591,168.228 57.575,160.250 57.579 L 153.250 57.583 153.207 32.167 C 153.184 18.188,153.200 6.656,153.244 6.542 C 153.342 6.284,166.977 6.254,168.167 6.509 M79.775 16.264 C 80.185 17.173,80.748 18.399,81.024 18.988 C 81.301 19.577,81.851 20.777,82.246 21.655 C 82.641 22.532,83.385 24.137,83.899 25.222 C 84.413 26.306,84.833 27.219,84.833 27.251 C 84.833 27.307,85.513 28.799,86.541 31.000 C 87.063 32.117,88.575 35.419,89.265 36.952 C 89.933 38.433,90.701 38.333,78.560 38.333 C 66.260 38.333,66.949 38.433,67.733 36.766 C 67.953 36.299,68.395 35.354,68.715 34.667 C 69.035 33.979,69.688 32.592,70.166 31.583 C 71.403 28.975,72.296 27.081,74.314 22.792 C 79.041 12.743,78.484 13.408,79.775 16.264 M97.140 83.123 C 96.896 83.651,96.202 85.121,95.598 86.389 C 94.994 87.657,94.500 88.716,94.500 88.743 C 94.500 88.771,93.948 89.946,93.273 91.355 C 92.598 92.764,91.855 94.329,91.623 94.833 C 91.391 95.337,90.846 96.500,90.413 97.417 C 89.980 98.333,89.327 99.721,88.960 100.500 C 88.594 101.279,88.003 102.535,87.647 103.292 C 87.291 104.048,86.709 105.285,86.354 106.042 C 85.999 106.798,85.427 108.017,85.082 108.750 C 84.737 109.483,84.008 111.021,83.461 112.167 C 82.914 113.313,82.278 114.662,82.047 115.167 C 81.608 116.126,81.032 117.349,79.368 120.854 C 77.906 123.934,77.894 123.667,79.496 123.667 L 80.849 123.667 81.987 121.292 C 82.614 119.985,83.316 118.504,83.548 118.000 C 84.001 117.012,85.319 114.228,86.555 111.645 C 86.978 110.762,87.444 109.993,87.592 109.936 C 87.948 109.800,104.893 109.803,105.249 109.939 C 105.400 109.997,105.788 110.616,106.111 111.314 C 106.434 112.012,106.871 112.958,107.083 113.417 C 107.450 114.208,109.337 118.334,110.818 121.583 C 111.195 122.408,111.566 123.196,111.644 123.333 C 111.807 123.620,118.000 123.806,118.000 123.524 C 118.000 123.322,117.596 122.361,116.835 120.750 C 116.489 120.017,116.036 119.042,115.830 118.583 C 115.624 118.125,115.157 117.112,114.793 116.333 C 114.428 115.554,113.807 114.204,113.414 113.333 C 113.020 112.462,112.400 111.112,112.036 110.333 C 111.672 109.554,111.205 108.542,110.998 108.083 C 110.792 107.625,110.324 106.612,109.959 105.833 C 109.595 105.054,108.975 103.704,108.583 102.833 C 107.887 101.287,107.386 100.202,105.897 97.023 C 105.495 96.164,105.167 95.436,105.167 95.404 C 105.167 95.372,104.754 94.481,104.250 93.424 C 103.746 92.367,103.333 91.470,103.333 91.430 C 103.333 91.389,102.895 90.432,102.359 89.303 C 101.824 88.174,101.018 86.425,100.568 85.417 C 99.145 82.223,99.168 82.257,98.321 82.206 L 97.583 82.162 97.140 83.123 M255.250 82.455 C 252.056 83.236,251.029 83.594,248.917 84.663 C 233.585 92.427,233.486 114.459,248.750 122.075 C 258.986 127.182,270.500 124.669,276.968 115.917 C 278.036 114.471,278.038 114.505,276.875 113.680 C 275.654 112.814,275.663 112.812,274.927 114.006 C 270.142 121.757,262.289 124.250,254.333 120.542 C 240.437 114.065,242.243 89.359,256.917 85.197 C 264.469 83.055,270.372 85.416,274.483 92.222 C 275.605 94.079,275.658 94.082,277.819 92.389 C 278.109 92.161,275.851 89.189,274.248 87.690 C 271.530 85.147,268.425 83.486,264.515 82.483 C 262.928 82.076,256.876 82.058,255.250 82.455 M302.327 82.958 C 300.371 87.069,299.196 89.555,298.249 91.583 C 297.308 93.599,295.981 96.417,294.248 100.083 C 293.814 101.000,293.161 102.388,292.797 103.167 C 292.432 103.946,291.848 105.183,291.500 105.917 C 291.151 106.650,290.642 107.737,290.369 108.333 C 290.095 108.929,289.459 110.279,288.955 111.333 C 288.452 112.388,287.459 114.487,286.749 116.000 C 284.945 119.843,284.113 121.604,283.605 122.656 C 283.364 123.155,283.167 123.586,283.167 123.615 C 283.167 123.643,283.796 123.667,284.564 123.667 L 285.962 123.667 286.217 123.125 C 287.460 120.486,288.248 118.821,288.957 117.333 C 289.780 115.604,290.428 114.227,291.602 111.708 C 292.577 109.615,291.425 109.833,301.500 109.833 C 311.518 109.833,310.456 109.653,311.296 111.500 C 311.567 112.096,311.959 112.958,312.167 113.417 C 312.894 115.022,313.538 116.427,314.077 117.583 C 314.376 118.225,315.127 119.856,315.747 121.208 L 316.874 123.667 320.020 123.667 C 321.751 123.667,323.167 123.620,323.167 123.564 C 323.167 123.455,322.318 121.555,321.202 119.167 C 320.839 118.388,320.372 117.375,320.165 116.917 C 319.958 116.458,319.491 115.446,319.126 114.667 C 318.761 113.888,318.141 112.537,317.747 111.667 C 317.353 110.796,316.733 109.446,316.370 108.667 C 316.006 107.888,315.502 106.800,315.250 106.250 C 314.089 103.720,313.836 103.171,313.291 102.000 C 312.971 101.313,312.540 100.375,312.333 99.917 C 312.125 99.458,311.657 98.446,311.293 97.667 C 310.928 96.888,310.307 95.537,309.914 94.667 C 309.520 93.796,308.900 92.446,308.536 91.667 C 308.173 90.888,307.668 89.800,307.415 89.250 C 307.162 88.700,306.711 87.725,306.414 87.083 C 306.117 86.442,305.634 85.392,305.340 84.750 C 304.118 82.076,304.186 82.167,303.405 82.167 C 302.732 82.167,302.688 82.199,302.327 82.958 M1.615 83.107 C 1.552 83.171,1.500 92.324,1.500 103.448 L 1.500 123.674 4.625 123.629 L 7.750 123.583 7.833 113.869 C 7.905 105.477,7.951 104.133,8.167 103.996 C 8.595 103.726,28.752 103.784,28.978 104.057 C 29.109 104.215,29.177 107.142,29.207 113.932 L 29.250 123.583 32.417 123.583 L 35.583 123.583 35.583 103.333 L 35.583 83.083 32.605 83.038 C 30.550 83.006,29.556 83.051,29.397 83.183 C 29.206 83.341,29.167 84.927,29.167 92.404 C 29.167 99.205,29.117 101.483,28.967 101.633 C 28.671 101.929,8.516 101.921,8.115 101.625 C 7.858 101.434,7.830 100.632,7.792 92.250 L 7.750 83.083 4.740 83.038 C 3.084 83.013,1.678 83.044,1.615 83.107 M46.611 83.111 C 46.550 83.172,46.500 92.322,46.500 103.444 L 46.500 123.667 60.500 123.667 L 74.500 123.667 74.500 122.583 L 74.500 121.500 63.867 121.500 C 55.819 121.500,53.185 121.451,53.033 121.300 C 52.745 121.011,52.745 102.989,53.033 102.700 C 53.182 102.551,54.982 102.500,60.103 102.500 C 68.039 102.500,67.500 102.580,67.500 101.399 L 67.500 100.500 60.429 100.500 C 54.222 100.500,53.325 100.468,53.095 100.238 C 52.698 99.841,52.698 85.659,53.095 85.262 C 53.328 85.029,54.540 85.000,63.929 85.000 L 74.500 85.000 74.500 84.000 L 74.500 83.000 60.611 83.000 C 52.972 83.000,46.672 83.050,46.611 83.111 M124.278 83.111 C 124.217 83.172,124.167 92.322,124.167 103.444 L 124.167 123.667 137.750 123.667 L 151.333 123.667 151.333 122.583 L 151.333 121.500 141.264 121.500 C 135.725 121.500,131.075 121.454,130.930 121.399 C 130.692 121.307,130.667 119.485,130.667 102.471 C 130.667 89.812,130.610 83.539,130.494 83.322 C 130.319 82.995,124.588 82.801,124.278 83.111 M150.901 83.230 C 150.852 83.358,150.836 83.789,150.864 84.189 L 150.917 84.917 158.167 84.959 C 164.746 84.997,165.436 85.027,165.625 85.282 C 165.789 85.504,165.833 89.636,165.833 104.619 L 165.833 123.674 169.042 123.629 L 172.250 123.583 172.292 104.516 C 172.323 90.853,172.387 85.386,172.520 85.226 C 172.668 85.048,174.138 84.995,179.894 84.960 L 187.083 84.917 187.083 84.000 L 187.083 83.083 169.037 83.041 C 153.755 83.005,150.976 83.034,150.901 83.230 M194.083 83.371 C 194.033 83.580,194.012 92.712,194.038 103.667 L 194.083 123.583 197.208 123.629 L 200.333 123.674 200.333 114.124 C 200.333 105.750,200.365 104.529,200.593 104.204 L 200.852 103.833 211.067 103.833 C 220.751 103.833,221.296 103.849,221.558 104.138 C 221.807 104.414,221.833 105.345,221.833 114.055 L 221.833 123.667 225.001 123.667 L 228.168 123.667 228.126 103.375 L 228.083 83.083 225.000 83.083 L 221.917 83.083 221.833 92.298 C 221.761 100.245,221.716 101.534,221.500 101.670 C 221.164 101.882,201.002 101.882,200.667 101.670 C 200.451 101.534,200.405 100.245,200.333 92.298 L 200.250 83.083 197.212 83.038 L 194.175 82.993 194.083 83.371 M329.418 83.367 C 329.367 83.578,329.346 92.712,329.371 103.667 L 329.417 123.583 332.542 123.629 L 335.667 123.674 335.667 114.182 C 335.667 102.938,335.337 104.167,338.356 104.167 C 341.291 104.167,339.779 102.586,349.750 116.081 C 351.492 118.438,353.465 121.109,354.136 122.017 L 355.355 123.667 358.928 123.667 C 360.892 123.667,362.500 123.620,362.500 123.563 C 362.500 123.506,359.229 119.103,355.232 113.778 L 347.963 104.098 348.383 103.737 C 348.613 103.539,349.090 103.325,349.443 103.261 C 354.221 102.404,358.249 97.445,357.950 92.785 C 357.861 91.406,357.722 90.854,357.039 89.167 C 356.169 87.016,353.519 84.980,350.250 83.951 C 347.599 83.117,347.410 83.103,338.214 83.041 L 329.510 82.984 329.418 83.367 M368.744 83.207 C 368.700 83.322,368.684 92.454,368.707 103.500 L 368.750 123.583 382.800 123.626 L 396.849 123.669 396.800 122.626 L 396.750 121.583 386.099 121.540 C 378.569 121.510,375.382 121.443,375.224 121.312 C 374.938 121.075,374.889 103.352,375.173 102.822 C 375.339 102.512,375.596 102.500,382.298 102.497 C 390.027 102.495,389.708 102.542,389.635 101.401 L 389.583 100.583 382.567 100.500 C 376.959 100.433,375.496 100.371,375.275 100.188 C 374.957 99.924,374.851 85.828,375.163 85.333 C 375.300 85.117,376.755 85.072,386.036 85.000 L 396.750 84.917 396.750 84.000 L 396.750 83.083 382.787 83.041 C 371.704 83.007,368.807 83.041,368.744 83.207 M344.528 85.268 C 352.497 87.292,353.505 97.768,346.083 101.428 C 343.760 102.574,336.693 103.293,335.867 102.467 C 335.578 102.178,335.578 85.488,335.867 85.200 C 336.194 84.873,343.189 84.928,344.528 85.268 M96.766 91.294 C 96.867 91.362,97.449 92.524,98.061 93.878 C 98.672 95.232,99.461 96.957,99.814 97.711 C 100.167 98.466,100.626 99.458,100.833 99.917 C 101.288 100.921,101.897 102.240,102.832 104.250 C 104.018 106.797,104.174 107.260,103.949 107.567 C 103.646 107.979,88.782 107.895,88.703 107.481 C 88.650 107.208,88.931 106.533,90.284 103.679 C 91.686 100.721,93.384 97.122,94.575 94.583 C 96.098 91.339,96.192 91.172,96.500 91.172 C 96.546 91.172,96.666 91.227,96.766 91.294 M302.007 91.547 C 302.148 91.750,302.499 92.442,302.787 93.083 C 303.718 95.159,304.356 96.560,304.874 97.667 C 305.153 98.263,305.774 99.612,306.255 100.667 C 306.735 101.721,307.390 103.146,307.709 103.833 C 309.012 106.637,309.182 107.062,309.134 107.399 L 309.083 107.750 301.500 107.750 L 293.917 107.750 293.862 107.363 C 293.832 107.150,293.919 106.737,294.057 106.446 C 294.194 106.155,294.642 105.204,295.051 104.333 C 295.461 103.462,296.226 101.850,296.751 100.750 C 297.276 99.650,297.951 98.225,298.252 97.583 C 298.553 96.942,299.219 95.528,299.733 94.441 C 300.246 93.355,300.667 92.440,300.667 92.409 C 300.667 92.191,301.404 91.168,301.558 91.172 C 301.664 91.175,301.865 91.344,302.007 91.547 " stroke="none" fill="#1ccccc" fill-rule="evenodd"></path><path id="path1" d="M79.934 1.201 C 79.695 1.567,78.289 4.525,71.834 18.250 C 71.489 18.983,70.870 20.296,70.459 21.167 C 70.047 22.037,68.809 24.662,67.708 27.000 C 66.607 29.337,65.247 32.215,64.686 33.395 C 64.125 34.575,63.667 35.560,63.667 35.585 C 63.667 35.610,63.152 36.707,62.523 38.023 C 61.894 39.340,61.115 40.979,60.793 41.667 C 60.470 42.354,59.888 43.592,59.500 44.417 C 59.112 45.242,58.585 46.367,58.329 46.917 C 58.073 47.467,56.433 50.952,54.685 54.662 C 52.937 58.371,51.567 61.467,51.642 61.542 C 51.716 61.616,52.783 61.656,54.013 61.630 L 56.250 61.583 56.671 60.750 C 56.902 60.292,57.479 59.092,57.953 58.083 C 58.427 57.075,59.277 55.275,59.842 54.083 C 60.407 52.892,61.116 51.392,61.416 50.750 C 61.716 50.108,62.337 48.796,62.796 47.833 C 63.254 46.871,64.084 45.127,64.640 43.958 L 65.651 41.833 78.383 41.833 C 90.304 41.833,91.131 41.852,91.360 42.125 C 91.495 42.285,91.913 43.092,92.289 43.917 C 92.665 44.742,93.232 45.979,93.549 46.667 C 93.865 47.354,94.293 48.292,94.501 48.750 C 94.708 49.208,95.158 50.183,95.500 50.917 C 95.843 51.650,97.044 54.275,98.169 56.750 C 99.295 59.225,100.289 61.344,100.378 61.458 C 100.574 61.710,110.087 61.764,110.241 61.515 C 110.341 61.353,110.113 60.783,109.000 58.417 C 108.612 57.592,107.712 55.642,106.999 54.083 C 105.792 51.440,105.230 50.221,103.965 47.500 C 103.688 46.904,102.879 45.142,102.167 43.583 C 101.454 42.025,100.610 40.188,100.291 39.500 C 99.971 38.813,99.521 37.837,99.290 37.333 C 98.255 35.075,96.823 31.972,96.252 30.750 C 95.909 30.017,95.046 28.142,94.333 26.583 C 93.124 23.938,92.555 22.705,91.299 20.000 C 91.022 19.404,90.213 17.642,89.501 16.083 C 88.790 14.525,87.874 12.537,87.467 11.667 C 87.060 10.796,86.060 8.621,85.245 6.833 C 84.430 5.046,83.460 2.983,83.090 2.250 L 82.417 0.917 81.300 0.868 C 80.292 0.823,80.160 0.855,79.934 1.201 M82.489 1.484 C 82.678 1.750,82.833 2.007,82.833 2.055 C 82.833 2.103,83.086 2.692,83.395 3.363 C 83.704 4.034,84.127 4.958,84.334 5.417 C 84.541 5.875,85.009 6.888,85.374 7.667 C 85.739 8.446,86.359 9.796,86.753 10.667 C 87.147 11.537,87.767 12.887,88.131 13.667 C 88.495 14.446,88.961 15.458,89.168 15.917 C 89.561 16.791,90.167 18.100,91.314 20.552 C 91.691 21.359,92.000 22.046,92.000 22.078 C 92.000 22.110,92.487 23.159,93.083 24.410 C 93.679 25.661,94.167 26.712,94.167 26.745 C 94.167 26.778,94.532 27.580,94.979 28.527 C 95.426 29.475,95.961 30.625,96.168 31.083 C 96.844 32.581,97.524 34.063,98.040 35.167 C 98.319 35.762,98.941 37.112,99.421 38.167 C 99.902 39.221,100.556 40.646,100.876 41.333 C 101.196 42.021,101.626 42.958,101.831 43.417 C 102.037 43.875,102.489 44.850,102.835 45.583 C 103.771 47.562,104.667 49.517,104.667 49.580 C 104.667 49.611,105.154 50.659,105.750 51.910 C 106.346 53.161,106.833 54.212,106.833 54.245 C 106.833 54.278,107.199 55.080,107.646 56.027 C 108.092 56.975,108.627 58.125,108.835 58.583 C 109.042 59.042,109.392 59.812,109.613 60.296 C 110.182 61.544,110.339 61.500,105.330 61.500 C 100.645 61.500,100.167 61.421,100.167 60.647 C 100.167 60.530,99.680 59.447,98.381 56.667 C 98.059 55.979,97.476 54.704,97.084 53.833 C 96.692 52.962,96.026 51.514,95.602 50.615 C 95.179 49.716,94.833 48.955,94.833 48.926 C 94.833 48.896,94.505 48.169,94.103 47.311 C 93.701 46.452,93.205 45.375,93.000 44.917 C 92.029 42.744,91.610 41.907,91.437 41.794 C 91.190 41.633,65.808 41.635,65.554 41.796 C 65.384 41.905,64.807 43.060,62.664 47.583 C 62.403 48.133,61.622 49.775,60.928 51.231 C 60.234 52.686,59.667 53.897,59.667 53.922 C 59.667 54.006,56.673 60.256,56.355 60.833 L 56.035 61.417 54.073 61.464 C 51.571 61.524,51.622 61.651,52.992 58.778 C 53.634 57.432,54.321 55.975,54.517 55.540 C 54.714 55.106,55.323 53.813,55.871 52.667 C 56.419 51.521,57.376 49.496,57.998 48.167 C 60.279 43.294,60.884 42.012,62.872 37.833 C 63.330 36.871,63.912 35.633,64.166 35.083 C 64.419 34.533,64.981 33.333,65.415 32.417 C 67.150 28.745,68.475 25.931,69.416 23.917 C 70.429 21.746,71.290 19.925,72.397 17.610 C 73.004 16.341,73.500 15.282,73.500 15.257 C 73.500 15.232,74.052 14.057,74.727 12.647 C 75.402 11.237,76.124 9.708,76.331 9.250 C 76.539 8.792,77.136 7.517,77.660 6.417 C 78.183 5.317,78.973 3.648,79.416 2.708 L 80.222 1.000 81.183 1.000 C 82.053 1.000,82.176 1.046,82.489 1.484 M1.778 2.278 C 1.618 2.438,1.645 61.208,1.806 61.461 C 1.910 61.625,2.998 61.662,6.678 61.628 L 11.417 61.583 11.500 47.833 C 11.546 40.271,11.644 33.990,11.718 33.875 C 11.819 33.720,12.716 33.667,15.255 33.667 L 18.656 33.667 20.134 35.625 C 20.947 36.702,22.772 39.158,24.190 41.083 C 36.662 58.019,39.078 61.277,39.304 61.458 C 39.811 61.866,50.560 61.748,50.453 61.337 C 50.405 61.155,45.663 54.744,39.914 47.091 C 33.566 38.640,29.497 33.082,29.552 32.937 C 29.602 32.807,30.380 32.471,31.280 32.191 C 39.135 29.749,43.708 24.417,43.736 17.667 C 43.772 9.152,37.799 3.786,26.757 2.414 C 24.674 2.155,2.024 2.032,1.778 2.278 M118.447 2.275 C 118.285 2.437,118.310 61.206,118.472 61.461 C 118.576 61.625,119.682 61.662,123.428 61.628 L 128.250 61.583 128.250 31.917 L 128.250 2.250 123.405 2.206 C 120.741 2.182,118.509 2.213,118.447 2.275 M143.577 2.375 C 143.533 2.490,143.517 15.858,143.541 32.083 L 143.583 61.583 157.167 61.580 C 172.538 61.577,173.105 61.536,178.147 60.081 C 191.910 56.107,200.060 45.479,200.064 31.500 C 200.068 18.159,192.755 8.127,180.167 4.205 C 179.646 4.043,178.669 3.805,176.583 3.334 C 175.357 3.058,172.444 2.679,169.562 2.422 C 165.757 2.082,143.703 2.042,143.577 2.375 M212.867 2.367 C 212.654 2.579,212.562 60.509,212.773 61.297 C 212.873 61.669,212.915 61.676,214.896 61.630 L 216.917 61.583 217.000 37.550 C 217.088 12.116,217.070 12.644,217.817 13.423 C 217.989 13.603,219.009 15.475,220.085 17.583 C 221.160 19.692,222.922 23.142,223.999 25.250 C 225.077 27.358,226.990 31.108,228.250 33.583 C 229.511 36.058,231.273 39.508,232.166 41.250 C 233.060 42.992,234.860 46.517,236.167 49.083 C 243.360 63.209,242.451 61.667,243.578 61.667 C 244.767 61.667,243.619 63.776,256.989 37.030 C 264.457 22.092,269.090 13.002,269.215 13.044 C 269.371 13.096,269.436 18.619,269.500 37.347 L 269.583 61.583 274.500 61.583 L 279.417 61.583 279.417 31.917 L 279.417 2.250 274.564 2.206 C 270.245 2.167,269.686 2.192,269.481 2.434 C 269.354 2.584,264.188 12.841,258.000 25.228 C 249.123 43.000,246.680 47.760,246.417 47.798 C 246.134 47.838,245.669 47.028,243.353 42.464 C 241.851 39.505,239.480 34.833,238.083 32.083 C 235.284 26.573,231.448 19.012,226.415 9.083 C 224.602 5.508,223.046 2.490,222.956 2.375 C 222.726 2.081,213.160 2.074,212.867 2.367 M294.744 2.375 C 294.700 2.490,294.684 15.858,294.707 32.083 L 294.750 61.583 315.149 61.626 C 330.085 61.657,335.608 61.618,335.774 61.480 C 336.070 61.235,336.091 58.491,335.800 58.200 C 335.647 58.047,331.967 58.000,320.250 58.000 C 308.533 58.000,304.853 57.953,304.700 57.800 C 304.403 57.503,304.411 31.411,304.708 31.218 C 304.823 31.144,309.529 31.046,315.167 31.000 L 325.417 30.917 325.464 29.208 C 325.490 28.269,325.490 27.483,325.464 27.463 C 325.438 27.442,320.729 27.386,315.000 27.338 L 304.583 27.250 304.540 16.705 L 304.498 6.159 304.926 5.996 C 305.194 5.894,311.060 5.833,320.576 5.833 C 334.302 5.833,335.808 5.807,335.899 5.570 C 336.086 5.082,336.009 2.575,335.800 2.367 C 335.502 2.069,294.857 2.077,294.744 2.375 M347.367 2.367 C 347.155 2.578,347.062 60.508,347.272 61.292 C 347.417 61.832,351.208 61.879,351.494 61.344 C 351.611 61.127,351.667 53.528,351.667 37.928 C 351.667 15.934,351.681 14.833,351.962 14.833 C 352.139 14.833,353.534 16.293,355.429 18.458 C 357.173 20.452,362.762 26.846,367.848 32.667 C 372.934 38.487,381.011 47.731,385.797 53.208 L 394.498 63.167 395.395 63.167 C 395.947 63.167,396.365 63.080,396.480 62.941 C 396.618 62.775,396.656 54.690,396.625 32.482 L 396.583 2.250 394.681 2.203 C 393.474 2.173,392.712 2.221,392.597 2.336 C 392.470 2.463,392.392 8.904,392.333 24.050 C 392.260 42.921,392.219 45.583,392.003 45.583 C 391.867 45.583,390.067 43.705,388.003 41.409 C 382.188 34.940,375.154 27.104,364.077 14.755 C 358.489 8.525,353.647 3.144,353.317 2.797 L 352.718 2.167 350.142 2.167 C 348.361 2.167,347.505 2.228,347.367 2.367 M27.417 2.718 C 30.514 3.184,31.598 3.457,34.000 4.374 C 38.322 6.023,41.738 9.394,42.846 13.102 C 43.035 13.734,43.259 14.422,43.345 14.633 C 43.616 15.302,43.535 19.907,43.234 20.885 C 41.654 26.030,37.391 30.060,31.667 31.822 C 29.856 32.379,29.167 32.687,29.167 32.941 C 29.167 33.064,33.896 39.465,39.677 47.165 C 45.457 54.866,50.140 61.241,50.083 61.333 C 49.875 61.670,39.714 61.548,39.375 61.204 C 39.215 61.041,38.408 59.983,37.583 58.853 C 36.758 57.722,34.846 55.125,33.333 53.081 C 31.821 51.037,29.271 47.585,27.667 45.410 C 26.063 43.235,23.420 39.664,21.794 37.475 L 18.837 33.494 15.127 33.538 L 11.417 33.583 11.374 47.317 C 11.344 57.127,11.278 61.116,11.145 61.276 C 10.890 61.583,2.339 61.606,2.033 61.300 C 1.820 61.087,1.724 3.144,1.937 2.592 C 2.091 2.188,24.640 2.299,27.417 2.718 M128.125 31.732 C 128.157 53.458,128.118 61.107,127.978 61.277 C 127.824 61.462,126.922 61.497,123.186 61.461 L 118.583 61.417 118.541 32.083 C 118.517 15.950,118.534 2.655,118.578 2.539 C 118.641 2.374,119.690 2.338,123.371 2.372 L 128.083 2.417 128.125 31.732 M170.417 2.721 C 174.491 3.151,175.558 3.296,176.053 3.486 C 176.311 3.585,176.718 3.667,176.957 3.667 C 177.197 3.667,177.623 3.739,177.905 3.828 C 178.186 3.917,178.867 4.112,179.417 4.262 C 189.147 6.918,196.921 14.648,199.014 23.750 C 199.726 26.847,199.745 27.045,199.744 31.417 C 199.742 36.283,199.518 37.936,198.407 41.250 C 196.364 47.347,192.124 52.676,186.583 56.110 C 184.849 57.184,182.085 58.521,180.500 59.051 C 180.088 59.189,179.563 59.376,179.333 59.467 C 179.104 59.558,178.579 59.724,178.167 59.836 C 177.754 59.949,177.079 60.136,176.667 60.251 C 176.254 60.367,175.167 60.586,174.250 60.739 C 173.333 60.891,172.171 61.097,171.667 61.197 C 170.265 61.476,144.238 61.600,143.913 61.330 C 143.658 61.118,143.518 3.249,143.771 2.590 C 143.920 2.201,166.545 2.312,170.417 2.721 M222.789 2.542 C 222.878 2.656,224.510 5.825,226.415 9.583 C 228.319 13.342,231.095 18.817,232.583 21.750 C 234.071 24.683,236.733 29.933,238.499 33.417 C 245.634 47.492,245.900 47.999,246.222 48.101 C 246.856 48.302,245.342 51.221,263.072 15.622 L 269.694 2.328 274.472 2.372 L 279.250 2.417 279.250 31.917 L 279.250 61.417 274.667 61.461 C 270.506 61.502,270.064 61.479,269.875 61.221 C 269.711 60.996,269.667 55.862,269.667 36.880 C 269.667 11.150,269.694 12.037,268.922 12.852 C 268.801 12.979,263.287 23.903,256.669 37.128 C 249.681 51.089,244.506 61.241,244.328 61.336 C 243.098 61.994,242.868 61.732,240.373 56.833 C 236.180 48.600,233.604 43.550,231.988 40.397 C 231.090 38.645,229.329 35.195,228.076 32.731 C 225.915 28.483,223.713 24.170,219.959 16.833 C 218.044 13.092,217.534 12.447,216.960 13.042 C 216.938 13.065,216.881 23.958,216.835 37.250 L 216.750 61.417 215.250 61.466 C 214.425 61.493,213.581 61.472,213.375 61.421 L 213.000 61.327 213.000 31.941 C 213.000 15.779,213.050 2.506,213.111 2.444 C 213.332 2.224,222.613 2.317,222.789 2.542 M335.583 4.000 L 335.583 5.583 320.056 5.667 C 311.515 5.712,304.465 5.813,304.389 5.889 C 304.140 6.138,304.216 27.116,304.467 27.367 C 304.638 27.538,306.839 27.601,314.967 27.667 L 325.250 27.750 325.250 29.250 L 325.250 30.750 314.889 30.833 C 309.190 30.879,304.465 30.979,304.389 31.055 C 304.183 31.261,304.121 57.192,304.325 57.728 L 304.491 58.165 320.037 58.207 L 335.583 58.250 335.583 59.833 L 335.583 61.417 315.435 61.459 C 300.683 61.490,295.225 61.451,295.060 61.314 C 294.817 61.112,294.704 2.685,294.945 2.444 C 295.007 2.382,304.175 2.351,315.320 2.374 L 335.583 2.417 335.583 4.000 M355.267 5.290 C 356.724 6.916,358.894 9.335,360.089 10.665 C 361.284 11.995,364.282 15.333,366.751 18.083 C 369.221 20.833,372.554 24.546,374.159 26.333 C 375.764 28.121,377.714 30.296,378.493 31.167 C 379.271 32.037,380.217 33.087,380.595 33.500 C 381.312 34.284,382.442 35.543,387.857 41.593 C 391.925 46.136,391.868 46.082,392.317 45.842 L 392.665 45.656 392.708 24.036 L 392.750 2.417 394.542 2.369 L 396.333 2.322 396.333 32.578 L 396.333 62.833 395.429 62.833 L 394.525 62.833 392.227 60.208 C 389.913 57.565,386.798 54.010,385.984 53.083 C 384.343 51.215,380.555 46.877,379.583 45.753 C 378.942 45.011,376.654 42.390,374.500 39.928 C 369.764 34.515,362.637 26.358,356.685 19.539 C 352.481 14.722,351.859 14.128,351.460 14.542 C 351.438 14.565,351.381 25.121,351.335 38.000 L 351.250 61.417 349.750 61.466 C 348.925 61.493,348.081 61.472,347.875 61.421 L 347.500 61.327 347.500 31.941 C 347.500 15.779,347.550 2.506,347.611 2.444 C 347.672 2.383,348.823 2.333,350.169 2.333 L 352.617 2.333 355.267 5.290 M11.625 5.680 C 11.331 5.852,11.147 29.987,11.434 30.736 C 11.559 31.060,18.510 31.123,20.539 30.818 C 28.454 29.631,33.320 24.747,33.330 17.979 C 33.339 12.512,30.288 8.174,25.083 6.255 C 23.187 5.556,12.614 5.104,11.625 5.680 M23.083 5.994 C 35.187 8.376,36.843 24.282,25.500 29.203 C 22.739 30.400,20.013 30.833,15.231 30.833 C 12.538 30.833,11.982 30.791,11.762 30.571 C 11.529 30.338,11.500 29.000,11.500 18.353 C 11.500 5.947,11.495 6.040,12.167 5.772 C 12.607 5.595,22.034 5.787,23.083 5.994 M153.244 6.542 C 153.200 6.656,153.184 18.188,153.207 32.167 L 153.250 57.583 160.250 57.579 C 167.316 57.575,168.269 57.525,170.083 57.062 C 170.633 56.922,171.383 56.730,171.750 56.636 C 175.857 55.580,180.299 52.732,182.979 49.436 C 190.310 40.422,190.792 25.486,184.055 16.050 C 180.717 11.375,174.799 7.598,169.500 6.761 C 169.179 6.711,168.579 6.597,168.167 6.509 C 166.977 6.254,153.342 6.284,153.244 6.542 M168.546 6.834 C 182.138 9.194,190.171 21.083,188.251 36.000 C 186.704 48.018,179.110 55.767,167.417 57.263 C 164.999 57.572,153.835 57.602,153.533 57.300 C 153.315 57.082,153.227 6.829,153.444 6.611 C 153.748 6.308,166.607 6.497,168.546 6.834 M78.375 14.474 C 78.268 14.540,77.757 15.492,77.239 16.589 C 76.182 18.826,75.327 20.638,74.314 22.792 C 72.296 27.081,71.403 28.975,70.166 31.583 C 69.688 32.592,69.035 33.979,68.715 34.667 C 68.395 35.354,67.953 36.299,67.733 36.766 C 66.949 38.433,66.260 38.333,78.560 38.333 C 90.701 38.333,89.933 38.433,89.265 36.952 C 88.575 35.419,87.063 32.117,86.541 31.000 C 85.513 28.799,84.833 27.307,84.833 27.251 C 84.833 27.219,84.413 26.306,83.899 25.222 C 83.385 24.137,82.641 22.532,82.246 21.655 C 81.851 20.777,81.301 19.577,81.024 18.988 C 80.748 18.399,80.185 17.173,79.775 16.264 C 79.030 14.617,78.741 14.248,78.375 14.474 M79.526 16.292 C 79.899 17.094,80.419 18.213,80.682 18.778 C 80.946 19.344,81.978 21.594,82.977 23.778 C 84.815 27.796,85.295 28.840,86.411 31.250 C 88.644 36.073,89.340 37.687,89.250 37.834 C 89.029 38.190,67.667 38.048,67.667 37.690 C 67.667 37.519,68.200 36.263,68.851 34.898 C 69.503 33.533,70.245 31.967,70.501 31.417 C 70.756 30.867,71.357 29.592,71.835 28.583 C 72.313 27.575,73.305 25.475,74.040 23.917 C 74.774 22.358,75.703 20.390,76.104 19.542 C 76.505 18.694,77.168 17.287,77.576 16.417 C 78.515 14.416,78.651 14.407,79.526 16.292 M97.466 82.125 C 97.328 82.285,96.969 82.942,96.669 83.583 C 96.368 84.225,95.787 85.462,95.375 86.333 C 94.964 87.204,94.383 88.442,94.084 89.083 C 93.434 90.477,92.481 92.504,91.459 94.667 C 91.047 95.537,89.491 98.837,88.000 102.000 C 86.509 105.162,84.953 108.462,84.541 109.333 C 83.750 111.008,82.966 112.673,81.874 115.000 C 81.508 115.779,80.899 117.073,80.521 117.875 C 80.143 118.677,79.526 119.990,79.150 120.792 C 78.773 121.594,78.323 122.545,78.150 122.906 C 77.697 123.846,77.679 123.833,79.427 123.833 L 81.021 123.833 82.240 121.292 C 83.525 118.613,84.379 116.807,86.041 113.250 C 86.598 112.058,87.197 110.877,87.372 110.625 L 87.689 110.167 96.402 110.167 C 105.551 110.167,105.667 110.175,105.667 110.874 C 105.667 110.927,106.032 111.747,106.479 112.694 C 106.926 113.641,107.460 114.792,107.666 115.250 C 107.872 115.708,108.318 116.683,108.657 117.417 C 108.996 118.150,109.752 119.800,110.335 121.083 C 110.919 122.367,111.467 123.510,111.552 123.625 C 111.784 123.936,118.333 123.924,118.333 123.613 C 118.333 123.492,118.107 122.926,117.831 122.356 C 117.555 121.786,116.812 120.179,116.179 118.785 C 115.547 117.391,114.733 115.612,114.370 114.833 C 113.093 112.090,112.616 111.057,111.333 108.250 C 110.621 106.692,109.758 104.817,109.415 104.083 C 109.073 103.350,108.174 101.400,107.417 99.750 C 105.585 95.754,105.062 94.622,104.460 93.333 C 104.181 92.737,103.559 91.388,103.079 90.333 C 102.598 89.279,101.944 87.854,101.624 87.167 C 101.305 86.479,100.840 85.467,100.592 84.917 C 99.247 81.937,99.171 81.833,98.333 81.833 C 97.955 81.833,97.621 81.945,97.466 82.125 M256.833 81.996 C 243.039 83.542,234.137 96.676,238.024 109.748 C 242.846 125.969,265.547 130.316,276.329 117.083 C 278.484 114.439,278.491 114.390,276.847 113.375 C 275.433 112.501,275.657 112.448,274.736 113.875 C 270.087 121.076,263.414 123.613,256.041 120.983 C 241.434 115.773,241.320 91.440,255.876 85.827 C 263.604 82.847,270.382 85.422,274.667 92.966 C 275.421 94.295,275.423 94.295,276.905 93.298 C 278.425 92.275,278.419 92.356,277.127 90.635 C 272.192 84.058,265.155 81.062,256.833 81.996 M302.699 81.947 C 302.579 81.995,302.268 82.495,302.008 83.059 C 301.747 83.622,301.144 84.908,300.667 85.917 C 300.189 86.925,299.590 88.200,299.334 88.750 C 299.079 89.300,298.442 90.650,297.919 91.750 C 297.397 92.850,296.459 94.837,295.835 96.167 C 295.211 97.496,294.205 99.623,293.600 100.893 C 292.995 102.164,292.500 103.224,292.500 103.249 C 292.500 103.275,292.022 104.298,291.438 105.523 C 290.854 106.748,290.112 108.313,289.790 109.000 C 289.467 109.688,288.848 111.000,288.415 111.917 C 287.659 113.517,287.254 114.383,285.938 117.205 C 285.607 117.914,284.811 119.593,284.168 120.936 C 282.684 124.041,282.655 123.833,284.564 123.833 L 286.129 123.833 286.424 123.208 C 286.586 122.865,287.202 121.571,287.793 120.333 C 288.384 119.096,289.056 117.671,289.288 117.167 C 290.147 115.292,292.172 111.069,292.405 110.667 L 292.646 110.250 301.468 110.207 C 308.399 110.173,310.327 110.209,310.461 110.374 C 310.555 110.489,311.157 111.746,311.799 113.168 C 312.440 114.589,313.228 116.314,313.549 117.001 C 313.869 117.688,314.408 118.850,314.746 119.583 C 315.084 120.317,315.665 121.573,316.038 122.375 L 316.715 123.833 320.108 123.833 C 321.973 123.833,323.500 123.772,323.500 123.698 C 323.500 123.623,323.321 123.191,323.102 122.738 C 322.884 122.285,321.917 120.190,320.953 118.082 C 319.990 115.974,318.922 113.650,318.580 112.917 C 317.969 111.607,316.370 108.138,315.544 106.333 C 315.314 105.829,314.827 104.779,314.464 104.000 C 314.100 103.221,313.480 101.871,313.086 101.000 C 312.693 100.129,312.072 98.779,311.707 98.000 C 311.343 97.221,310.890 96.246,310.701 95.833 C 310.513 95.421,309.596 93.433,308.664 91.417 C 307.732 89.400,306.439 86.587,305.791 85.167 C 304.186 81.646,303.982 81.433,302.699 81.947 M99.405 82.917 C 99.595 83.283,100.119 84.408,100.568 85.417 C 101.018 86.425,101.824 88.174,102.359 89.303 C 102.895 90.432,103.333 91.389,103.333 91.430 C 103.333 91.470,103.746 92.367,104.250 93.424 C 104.754 94.481,105.167 95.372,105.167 95.404 C 105.167 95.436,105.495 96.164,105.897 97.023 C 107.386 100.202,107.887 101.287,108.583 102.833 C 108.975 103.704,109.595 105.054,109.959 105.833 C 110.324 106.612,110.792 107.625,110.998 108.083 C 111.205 108.542,111.672 109.554,112.036 110.333 C 112.400 111.112,113.020 112.462,113.414 113.333 C 113.807 114.204,114.428 115.554,114.793 116.333 C 115.157 117.112,115.624 118.125,115.830 118.583 C 116.036 119.042,116.489 120.017,116.835 120.750 C 117.596 122.361,118.000 123.322,118.000 123.524 C 118.000 123.806,111.807 123.620,111.644 123.333 C 111.566 123.196,111.195 122.408,110.818 121.583 C 109.337 118.334,107.450 114.208,107.083 113.417 C 106.871 112.958,106.434 112.012,106.111 111.314 C 105.788 110.616,105.400 109.997,105.249 109.939 C 104.893 109.803,87.948 109.800,87.592 109.936 C 87.444 109.993,86.978 110.762,86.555 111.645 C 85.319 114.228,84.001 117.012,83.548 118.000 C 83.316 118.504,82.614 119.985,81.987 121.292 L 80.849 123.667 79.496 123.667 C 77.894 123.667,77.906 123.934,79.368 120.854 C 81.032 117.349,81.608 116.126,82.047 115.167 C 82.278 114.662,82.914 113.313,83.461 112.167 C 84.008 111.021,84.737 109.483,85.082 108.750 C 85.427 108.017,85.999 106.798,86.354 106.042 C 86.709 105.285,87.291 104.048,87.647 103.292 C 88.003 102.535,88.594 101.279,88.960 100.500 C 89.327 99.721,89.980 98.333,90.413 97.417 C 90.846 96.500,91.391 95.337,91.623 94.833 C 91.855 94.329,92.598 92.764,93.273 91.355 C 93.948 89.946,94.500 88.771,94.500 88.743 C 94.500 88.716,94.994 87.657,95.598 86.389 C 96.202 85.121,96.896 83.651,97.140 83.123 L 97.583 82.162 98.321 82.206 C 98.996 82.246,99.088 82.307,99.405 82.917 M264.515 82.483 C 268.425 83.486,271.530 85.147,274.248 87.690 C 275.851 89.189,278.109 92.161,277.819 92.389 C 275.658 94.082,275.605 94.079,274.483 92.222 C 270.372 85.416,264.469 83.055,256.917 85.197 C 242.243 89.359,240.437 114.065,254.333 120.542 C 262.289 124.250,270.142 121.757,274.927 114.006 C 275.663 112.812,275.654 112.814,276.875 113.680 C 278.038 114.505,278.036 114.471,276.968 115.917 C 270.500 124.669,258.986 127.182,248.750 122.075 C 233.486 114.459,233.585 92.427,248.917 84.663 C 251.029 83.594,252.056 83.236,255.250 82.455 C 256.876 82.058,262.928 82.076,264.515 82.483 M304.457 82.875 C 304.650 83.265,305.047 84.108,305.340 84.750 C 305.634 85.392,306.117 86.442,306.414 87.083 C 306.711 87.725,307.162 88.700,307.415 89.250 C 307.668 89.800,308.173 90.888,308.536 91.667 C 308.900 92.446,309.520 93.796,309.914 94.667 C 310.307 95.537,310.928 96.888,311.293 97.667 C 311.657 98.446,312.125 99.458,312.333 99.917 C 312.540 100.375,312.971 101.313,313.291 102.000 C 313.836 103.171,314.089 103.720,315.250 106.250 C 315.502 106.800,316.006 107.888,316.370 108.667 C 316.733 109.446,317.353 110.796,317.747 111.667 C 318.141 112.537,318.761 113.888,319.126 114.667 C 319.491 115.446,319.958 116.458,320.165 116.917 C 320.372 117.375,320.839 118.388,321.202 119.167 C 322.318 121.555,323.167 123.455,323.167 123.564 C 323.167 123.620,321.751 123.667,320.020 123.667 L 316.874 123.667 315.747 121.208 C 315.127 119.856,314.376 118.225,314.077 117.583 C 313.538 116.427,312.894 115.022,312.167 113.417 C 311.959 112.958,311.567 112.096,311.296 111.500 C 310.456 109.653,311.518 109.833,301.500 109.833 C 291.425 109.833,292.577 109.615,291.602 111.708 C 290.428 114.227,289.780 115.604,288.957 117.333 C 288.248 118.821,287.460 120.486,286.217 123.125 L 285.962 123.667 284.564 123.667 C 283.796 123.667,283.167 123.643,283.167 123.615 C 283.167 123.586,283.364 123.155,283.605 122.656 C 284.113 121.604,284.945 119.843,286.749 116.000 C 287.459 114.487,288.452 112.388,288.955 111.333 C 289.459 110.279,290.095 108.929,290.369 108.333 C 290.642 107.737,291.151 106.650,291.500 105.917 C 291.848 105.183,292.432 103.946,292.797 103.167 C 293.161 102.388,293.814 101.000,294.248 100.083 C 295.981 96.417,297.308 93.599,298.249 91.583 C 299.196 89.555,300.371 87.069,302.327 82.958 C 302.873 81.810,303.911 81.769,304.457 82.875 M1.444 82.944 C 1.383 83.006,1.333 92.231,1.333 103.444 L 1.333 123.833 4.667 123.833 C 6.500 123.833,8.017 123.815,8.038 123.792 C 8.059 123.769,8.116 119.362,8.163 114.000 L 8.250 104.250 18.489 104.207 C 26.570 104.173,28.757 104.208,28.862 104.374 C 28.935 104.489,28.996 108.916,28.997 114.212 L 29.000 123.840 32.375 123.795 L 35.750 123.750 35.750 103.333 L 35.750 82.917 32.417 82.917 L 29.083 82.917 29.000 92.131 C 28.928 100.079,28.882 101.367,28.667 101.504 C 28.311 101.728,8.910 101.719,8.489 101.494 C 8.176 101.327,8.167 101.050,8.167 92.400 C 8.167 86.569,8.107 83.366,7.994 83.156 C 7.819 82.829,1.756 82.633,1.444 82.944 M46.445 82.944 C 46.384 83.005,46.333 92.231,46.333 103.445 L 46.333 123.835 60.542 123.793 L 74.750 123.750 74.750 122.583 L 74.750 121.417 64.000 121.333 L 53.250 121.250 53.207 112.042 C 53.183 106.977,53.183 102.817,53.207 102.796 C 53.231 102.776,56.475 102.719,60.417 102.671 L 67.583 102.583 67.583 101.417 L 67.583 100.250 60.417 100.167 L 53.250 100.083 53.250 92.750 L 53.250 85.417 63.818 85.374 C 75.743 85.325,74.872 85.440,74.799 83.932 L 74.750 82.917 60.654 82.874 C 52.901 82.851,46.507 82.882,46.445 82.944 M124.078 83.038 C 124.034 83.155,124.017 92.362,124.040 103.500 L 124.083 123.750 137.740 123.793 C 148.554 123.826,151.423 123.792,151.529 123.626 C 151.685 123.379,151.711 121.976,151.566 121.597 C 151.475 121.361,150.418 121.333,141.336 121.333 C 133.046 121.333,131.174 121.293,131.021 121.109 C 130.887 120.947,130.823 115.592,130.792 101.900 L 130.750 82.917 127.454 82.871 C 124.909 82.837,124.141 82.874,124.078 83.038 M150.779 82.944 C 150.530 83.192,150.659 85.128,150.930 85.232 C 151.075 85.288,154.377 85.333,158.268 85.333 L 165.342 85.333 165.504 85.761 C 165.606 86.029,165.667 93.186,165.667 105.014 L 165.667 123.840 169.042 123.795 L 172.417 123.750 172.500 104.583 L 172.583 85.417 179.735 85.373 C 187.862 85.324,187.371 85.417,187.299 83.932 L 187.250 82.917 169.070 82.874 C 159.071 82.851,150.840 82.882,150.779 82.944 M193.912 83.038 C 193.867 83.155,193.850 92.362,193.874 103.500 L 193.917 123.750 197.250 123.750 L 200.583 123.750 200.667 114.000 L 200.750 104.250 211.083 104.250 L 221.417 104.250 221.500 114.000 L 221.583 123.750 224.959 123.795 L 228.335 123.840 228.292 103.378 L 228.250 82.917 225.012 82.871 C 222.533 82.837,221.743 82.876,221.640 83.038 C 221.566 83.155,221.504 87.316,221.503 92.286 C 221.500 101.047,221.490 101.327,221.178 101.494 C 220.674 101.764,201.315 101.730,200.949 101.458 C 200.691 101.268,200.664 100.465,200.625 92.083 L 200.583 82.917 197.288 82.871 C 194.742 82.837,193.974 82.874,193.912 83.038 M329.247 83.034 C 329.201 83.153,329.184 92.362,329.207 103.500 L 329.250 123.750 332.542 123.795 L 335.833 123.840 335.833 114.493 C 335.833 108.368,335.893 105.034,336.006 104.822 C 336.164 104.527,336.375 104.500,338.495 104.500 L 340.811 104.500 341.386 105.208 C 341.702 105.598,343.594 108.129,345.591 110.833 C 347.587 113.537,350.564 117.569,352.205 119.792 L 355.190 123.833 359.012 123.833 C 361.383 123.833,362.833 123.772,362.833 123.671 C 362.833 123.581,359.649 119.270,355.757 114.090 C 351.865 108.910,348.602 104.524,348.505 104.343 C 348.295 103.950,348.422 103.864,350.003 103.334 C 354.112 101.955,357.327 98.825,358.009 95.541 C 359.237 89.625,355.622 84.859,348.667 83.226 C 347.012 82.837,329.388 82.663,329.247 83.034 M368.577 83.041 C 368.533 83.156,368.517 92.362,368.540 103.500 L 368.583 123.750 382.799 123.793 L 397.015 123.835 396.966 122.626 L 396.917 121.417 386.167 121.333 L 375.417 121.250 375.374 112.185 C 375.343 105.672,375.383 103.058,375.517 102.896 C 375.668 102.714,377.070 102.662,382.727 102.627 L 389.750 102.583 389.750 101.417 L 389.750 100.250 382.628 100.207 L 375.505 100.163 375.415 99.790 C 375.365 99.585,375.345 96.267,375.370 92.417 L 375.417 85.417 385.984 85.374 C 397.910 85.325,397.038 85.440,396.966 83.932 L 396.917 82.917 382.787 82.874 C 371.571 82.840,368.640 82.875,368.577 83.041 M7.792 92.250 C 7.830 100.632,7.858 101.434,8.115 101.625 C 8.516 101.921,28.671 101.929,28.967 101.633 C 29.117 101.483,29.167 99.205,29.167 92.404 C 29.167 84.927,29.206 83.341,29.397 83.183 C 29.556 83.051,30.550 83.006,32.605 83.038 L 35.583 83.083 35.583 103.333 L 35.583 123.583 32.417 123.583 L 29.250 123.583 29.207 113.932 C 29.177 107.142,29.109 104.215,28.978 104.057 C 28.752 103.784,8.595 103.726,8.167 103.996 C 7.951 104.133,7.905 105.477,7.833 113.869 L 7.750 123.583 4.625 123.629 L 1.500 123.674 1.500 103.448 C 1.500 92.324,1.552 83.171,1.615 83.107 C 1.678 83.044,3.084 83.013,4.740 83.038 L 7.750 83.083 7.792 92.250 M74.500 84.000 L 74.500 85.000 63.929 85.000 C 54.540 85.000,53.328 85.029,53.095 85.262 C 52.698 85.659,52.698 99.841,53.095 100.238 C 53.325 100.468,54.222 100.500,60.429 100.500 L 67.500 100.500 67.500 101.399 C 67.500 102.580,68.039 102.500,60.103 102.500 C 54.982 102.500,53.182 102.551,53.033 102.700 C 52.745 102.989,52.745 121.011,53.033 121.300 C 53.185 121.451,55.819 121.500,63.867 121.500 L 74.500 121.500 74.500 122.583 L 74.500 123.667 60.500 123.667 L 46.500 123.667 46.500 103.444 C 46.500 92.322,46.550 83.172,46.611 83.111 C 46.672 83.050,52.972 83.000,60.611 83.000 L 74.500 83.000 74.500 84.000 M130.494 83.322 C 130.610 83.539,130.667 89.812,130.667 102.471 C 130.667 119.485,130.692 121.307,130.930 121.399 C 131.075 121.454,135.725 121.500,141.264 121.500 L 151.333 121.500 151.333 122.583 L 151.333 123.667 137.750 123.667 L 124.167 123.667 124.167 103.444 C 124.167 92.322,124.217 83.172,124.278 83.111 C 124.588 82.801,130.319 82.995,130.494 83.322 M187.083 84.000 L 187.083 84.917 179.894 84.960 C 174.138 84.995,172.668 85.048,172.520 85.226 C 172.387 85.386,172.323 90.853,172.292 104.516 L 172.250 123.583 169.042 123.629 L 165.833 123.674 165.833 104.619 C 165.833 89.636,165.789 85.504,165.625 85.282 C 165.436 85.027,164.746 84.997,158.167 84.959 L 150.917 84.917 150.864 84.189 C 150.836 83.789,150.852 83.358,150.901 83.230 C 150.976 83.034,153.755 83.005,169.037 83.041 L 187.083 83.083 187.083 84.000 M200.333 92.298 C 200.405 100.245,200.451 101.534,200.667 101.670 C 201.002 101.882,221.164 101.882,221.500 101.670 C 221.716 101.534,221.761 100.245,221.833 92.298 L 221.917 83.083 225.000 83.083 L 228.083 83.083 228.126 103.375 L 228.168 123.667 225.001 123.667 L 221.833 123.667 221.833 114.055 C 221.833 105.345,221.807 104.414,221.558 104.138 C 221.296 103.849,220.751 103.833,211.067 103.833 L 200.852 103.833 200.593 104.204 C 200.365 104.529,200.333 105.750,200.333 114.124 L 200.333 123.674 197.208 123.629 L 194.083 123.583 194.038 103.667 C 194.012 92.712,194.033 83.580,194.083 83.371 L 194.175 82.993 197.212 83.038 L 200.250 83.083 200.333 92.298 M347.917 83.315 C 352.540 84.315,355.965 86.512,357.039 89.167 C 357.722 90.854,357.861 91.406,357.950 92.785 C 358.249 97.445,354.221 102.404,349.443 103.261 C 349.090 103.325,348.613 103.539,348.383 103.737 L 347.963 104.098 355.232 113.778 C 359.229 119.103,362.500 123.506,362.500 123.563 C 362.500 123.620,360.892 123.667,358.928 123.667 L 355.355 123.667 354.136 122.017 C 353.465 121.109,351.492 118.438,349.750 116.081 C 339.779 102.586,341.291 104.167,338.356 104.167 C 335.337 104.167,335.667 102.938,335.667 114.182 L 335.667 123.674 332.542 123.629 L 329.417 123.583 329.371 103.667 C 329.346 92.712,329.367 83.578,329.418 83.367 L 329.510 82.984 338.214 83.041 C 344.527 83.083,347.191 83.159,347.917 83.315 M396.750 84.000 L 396.750 84.917 386.036 85.000 C 376.755 85.072,375.300 85.117,375.163 85.333 C 374.851 85.828,374.957 99.924,375.275 100.188 C 375.496 100.371,376.959 100.433,382.567 100.500 L 389.583 100.583 389.635 101.401 C 389.708 102.542,390.027 102.495,382.298 102.497 C 375.596 102.500,375.339 102.512,375.173 102.822 C 374.889 103.352,374.938 121.075,375.224 121.312 C 375.382 121.443,378.569 121.510,386.099 121.540 L 396.750 121.583 396.800 122.626 L 396.849 123.669 382.800 123.626 L 368.750 123.583 368.707 103.500 C 368.684 92.454,368.700 83.322,368.744 83.207 C 368.807 83.041,371.704 83.007,382.787 83.041 L 396.750 83.083 396.750 84.000 M335.867 85.200 C 335.578 85.488,335.578 102.178,335.867 102.467 C 336.693 103.293,343.760 102.574,346.083 101.428 C 353.505 97.768,352.497 87.292,344.528 85.268 C 343.189 84.928,336.194 84.873,335.867 85.200 M343.820 85.349 C 352.029 86.716,353.457 97.544,345.917 101.254 C 343.505 102.441,336.499 103.098,336.009 102.184 C 335.695 101.596,335.845 85.533,336.167 85.330 C 336.513 85.111,342.479 85.126,343.820 85.349 M96.250 91.294 C 96.075 91.422,95.862 91.841,94.575 94.583 C 93.384 97.122,91.686 100.721,90.284 103.679 C 88.931 106.533,88.650 107.208,88.703 107.481 C 88.782 107.895,103.646 107.979,103.949 107.567 C 104.174 107.260,104.018 106.797,102.832 104.250 C 101.897 102.240,101.288 100.921,100.833 99.917 C 100.626 99.458,100.167 98.466,99.814 97.711 C 99.461 96.957,98.672 95.232,98.061 93.878 C 97.063 91.670,96.776 91.172,96.500 91.172 C 96.454 91.172,96.342 91.227,96.250 91.294 M301.016 91.760 C 300.824 92.086,300.667 92.378,300.667 92.409 C 300.667 92.440,300.246 93.355,299.733 94.441 C 299.219 95.528,298.553 96.942,298.252 97.583 C 297.951 98.225,297.276 99.650,296.751 100.750 C 296.226 101.850,295.461 103.462,295.051 104.333 C 294.642 105.204,294.194 106.155,294.057 106.446 C 293.919 106.737,293.832 107.150,293.862 107.363 L 293.917 107.750 301.500 107.750 L 309.083 107.750 309.134 107.399 C 309.182 107.062,309.012 106.637,307.709 103.833 C 307.390 103.146,306.735 101.721,306.255 100.667 C 305.774 99.612,305.153 98.263,304.874 97.667 C 304.356 96.560,303.718 95.159,302.787 93.083 C 301.851 90.997,301.584 90.798,301.016 91.760 M96.994 92.155 C 97.178 92.516,98.522 95.422,99.980 98.614 C 101.438 101.805,102.902 104.998,103.232 105.709 C 104.221 107.836,104.828 107.662,96.417 107.662 C 89.546 107.662,89.000 107.630,89.000 107.220 C 89.000 106.924,89.647 105.500,92.272 100.022 C 92.948 98.613,93.500 97.440,93.500 97.416 C 93.500 97.165,96.363 91.500,96.490 91.500 C 96.583 91.500,96.810 91.795,96.994 92.155 M302.417 92.929 C 302.783 93.663,303.265 94.673,303.487 95.173 C 303.709 95.674,304.169 96.683,304.509 97.417 C 304.849 98.150,305.333 99.200,305.584 99.750 C 305.835 100.300,306.669 102.121,307.437 103.798 C 308.882 106.952,309.015 107.395,308.570 107.566 C 307.999 107.784,294.578 107.677,294.269 107.451 C 293.936 107.208,293.916 107.265,295.627 103.667 C 296.706 101.396,297.905 98.864,299.829 94.786 C 301.585 91.068,301.513 91.119,302.417 92.929 " stroke="none" fill="#6fdbd8" fill-rule="evenodd"></path></g></svg>
